<svg xmlns="http://www.w3.org/2000/svg" version="1.1" xmlns:xlink="http://www.w3.org/1999/xlink" xmlns:svgjs="http://svgjs.dev/svgjs" width="1500" height="1500" viewBox="0 0 1500 1500"><rect width="1500" height="1500" fill="#ffffff"></rect><g transform="matrix(0.6666666666666666,0,0,0.6666666666666666,249.78425655976667,249.78425655976673)"><svg viewBox="0 0 343 343" data-background-color="#66ffc9" preserveAspectRatio="xMidYMid meet" height="1500" width="1500" xmlns="http://www.w3.org/2000/svg" xmlns:xlink="http://www.w3.org/1999/xlink"><g id="tight-bounds" transform="matrix(1,0,0,1,0.0740000000000407,0.07400000000001228)"><svg viewBox="0 0 342.85155851775386 342.85155851775386" height="342.85155851775386" width="342.85155851775386"><g><svg></svg></g><g><svg viewBox="0 0 342.85155851775386 342.85155851775386" height="342.85155851775386" width="342.85155851775386"><g><path d="M0 171.426c0-94.676 76.75-171.426 171.426-171.426 94.676 0 171.426 76.75 171.426 171.426 0 94.676-76.75 171.426-171.426 171.426-94.676 0-171.426-76.75-171.426-171.426zM171.426 337.271c91.594 0 165.845-74.251 165.845-165.845 0-91.594-74.251-165.845-165.845-165.845-91.594 0-165.845 74.251-165.845 165.845 0 91.594 74.251 165.845 165.845 165.845z" data-fill-palette-color="tertiary" fill="#000000" stroke="transparent"></path><ellipse rx="164.56874808852186" ry="164.56874808852186" cx="171.42577925887693" cy="171.42577925887693" fill="#000000" stroke="transparent" stroke-width="0" fill-opacity="1" data-fill-palette-color="tertiary"></ellipse></g><g transform="matrix(1,0,0,1,64.84655864529837,93.40206187758773)"><svg viewBox="0 0 213.1584412271571 156.0474347625784" height="156.0474347625784" width="213.1584412271571"><g><svg viewBox="0 0 213.1584412271571 156.0474347625784" height="156.0474347625784" width="213.1584412271571"><g><svg viewBox="0 0 213.1584412271571 156.0474347625784" height="156.0474347625784" width="213.1584412271571"><g transform="matrix(1,0,0,1,0,94.16272601921023)"><svg viewBox="0 0 213.1584412271571 61.884708743368186" height="61.884708743368186" width="213.1584412271571"><g id="textblocktransform"><svg viewBox="0 0 213.1584412271571 61.884708743368186" height="61.884708743368186" width="213.1584412271571" id="textblock"><g><svg viewBox="0 0 213.1584412271571 61.884708743368186" height="61.884708743368186" width="213.1584412271571"><g transform="matrix(1,0,0,1,0,0)"><svg width="213.1584412271571" viewBox="1.1 -34.4 125.53 36.449999999999996" height="61.884708743368186" data-palette-color="#66ffc9"><path d="M15.5-6.8L15.5-6.8Q15.55-6.8 15.55-6.65 15.55-6.5 15.15-5.8L15.15-5.8Q13.6-3.3 10.65-1.18 7.7 0.95 5.1 0.95L5.1 0.95Q1.55 0.95 1.55-3.65L1.55-3.65Q1.55-5.2 1.9-6.95L1.9-6.95Q1.45-7.35 1.1-8.05L1.1-8.05Q1.15-8 1.35-7.93 1.55-7.85 1.73-7.78 1.9-7.7 2.1-7.65L2.1-7.65Q2.6-10.1 5.15-12.7 7.7-15.3 10.1-15.3L10.1-15.3Q10.65-15.3 10.65-15.18 10.65-15.05 9.95-14.65L9.95-14.65Q8.1-13.65 6.5-11.55L6.5-11.55Q4.8-9.45 4.05-7.35L4.05-7.35 4.15-7.25Q6.55-7.25 9.15-9.55 11.75-11.85 11.75-14.25L11.75-14.25Q11.75-14.95 11.38-15.58 11-16.2 10.15-16.2 9.3-16.2 8.03-15.43 6.75-14.65 6.63-14.65 6.5-14.65 6.5-14.7L6.5-14.7Q6.5-15.3 8.13-15.95 9.75-16.6 10.78-16.6 11.8-16.6 12.55-15.95 13.3-15.3 13.3-14.15L13.3-14.15Q13.3-11.5 10.03-9.15 6.75-6.8 3.85-6.55L3.85-6.55Q3.45-5.35 3.45-4.25L3.45-4.25Q3.45-0.1 6.45-0.1L6.45-0.1Q8.75-0.1 11.05-1.93 13.35-3.75 14.75-6.1L14.75-6.1Q15.2-6.8 15.5-6.8ZM20.55-8.43Q20.3-8.4 20.15-8.38 20-8.35 19.9-8.35L19.9-8.35 19.7-8.35Q19.55-8.35 19.2-8.8 18.85-9.25 18.75-9.5L18.75-9.5 18.85-9.6Q21.4-9.9 24.3-9.9 27.2-9.9 29-9.35L29-9.35Q29.15-9.3 29.15-9.1 29.15-8.9 28.85-8.9L28.85-8.9Q26.15-8.9 24.17-8.72 22.2-8.55 21.8-8.53 21.4-8.5 21.1-8.47 20.8-8.45 20.55-8.43ZM42.09-13.45L42.09-13.45Q42.09-12.55 41.7-11.33 41.3-10.1 40.64-10.1 40-10.1 40-10.85L40-10.85Q40-11.15 40.3-12.2L40.3-12.2Q40.64-13.25 40.64-13.95L40.64-13.95Q40.64-16.2 38.84-16.2L38.84-16.2Q37.95-16.2 36.57-15.48 35.2-14.75 35.05-14.75 34.89-14.75 34.89-14.9L34.89-14.9Q34.89-15.6 36.62-16.15 38.34-16.7 39.39-16.7L39.39-16.7Q42.09-16.7 42.09-13.45ZM32.95 1.4L32.95 1.4Q29.5 1.4 29.5-2.5 29.5-6.4 32.24-10.78 34.99-15.15 38.59-15.15L38.59-15.15Q39.14-15.15 39.14-14.98 39.14-14.8 38.14-14.2L38.14-14.2Q35.7-12.7 33.72-9.55 31.75-6.4 31.75-3.8L31.75-3.8Q31.75 0.25 34.8 0.25L34.8 0.25Q36.64 0.25 38.89-1.2L38.89-1.2Q42-3.2 43.8-6.05L43.8-6.05Q44.25-6.8 44.5-6.8L44.5-6.8 44.59-6.7Q44.59-6.5 44.14-5.85L44.14-5.85Q42.34-3.1 39.07-0.85 35.8 1.4 32.95 1.4ZM57.09-15.05L57.09-15.05 56.64-11.25Q56.64-8.2 57.54-5.1L57.54-5.1Q58.84-0.8 61.09-0.8L61.09-0.8Q61.49-0.8 62.09-1.05 62.69-1.3 62.79-1.3L62.79-1.3Q63.19-1.3 63.19-0.85 63.19-0.4 62.17 0 61.14 0.4 60.59 0.4L60.59 0.4Q58.04 0.4 56.17-3.45 54.29-7.3 54.29-10.45L54.29-10.45Q54.29-11.05 54.34-11.3L54.34-11.3Q52.69-8.9 47.19-3.7L47.19-3.7Q46.54-1.5 46.09 0.7L46.09 0.7Q45.74 2.05 44.44 2.05L44.44 2.05Q43.84 2.05 43.94 1.65L43.94 1.65Q43.79 1.25 43.22 0.38 42.64-0.5 42.64-0.8 42.64-1.1 42.99-1.15L42.99-1.15Q43.89-1.7 45.24-2.9L45.24-2.9Q48.29-11.8 55.69-28.15L55.69-28.15Q55.79-28.35 55.99-28.9L55.99-28.9Q56.34-29.85 56.99-31L56.99-31Q57.54-32.15 59.64-32.15L59.64-32.15Q60.39-32.15 60.39-31.8L60.39-31.8Q60.39-31.8 57.39-26.15L57.39-26.15Q50.39-12.9 47.74-5.3L47.74-5.3Q53.59-11.15 55.49-14.95L55.49-14.95Q55.79-15.45 56.44-15.45 57.09-15.45 57.09-15.05ZM44.74-1.4L44.74-1.4 43.69-0.55Q43.94-0.2 44.19 0.5L44.19 0.5Q44.59-1 44.74-1.4ZM78.44-6.3Q78.74-6.7 78.89-6.7 79.04-6.7 79.04-6.48 79.04-6.25 78.84-6L78.84-6Q74.34 0.7 71.89 0.7L71.89 0.7Q70.54 0.7 69.87-0.58 69.19-1.85 69.19-3.43 69.19-5 69.69-7.05L69.69-7.05Q66.54-0.05 63.19-0.05L63.19-0.05Q61.14-0.05 61.14-2.7L61.14-2.7Q61.14-6.95 65.27-11.55 69.39-16.15 73.49-16.15L73.49-16.15Q75.44-16.15 75.44-14.45L75.44-14.45Q75.44-12.35 72.64-10.25L72.64-10.25Q71.19-6.65 71.19-3.33 71.19 0 72.44 0L72.44 0Q74.09 0 78.44-6.3L78.44-6.3ZM73.14-11.95L73.14-11.95Q73.94-13.05 73.94-14.15 73.94-15.25 72.89-15.25L72.89-15.25Q70.39-15.25 66.34-10.33 62.29-5.4 62.29-2.75L62.29-2.75Q62.29-1.6 63.39-1.6L63.39-1.6Q66.54-1.6 69.49-8.6L69.49-8.6Q68.59-8.35 68.29-8.35 67.99-8.35 67.99-8.5L67.99-8.5Q67.99-8.75 68.69-9L68.69-9 70.24-9.9Q70.34-10.75 71.29-12.13 72.24-13.5 73.09-13.5L73.09-13.5Q73.39-13.5 73.39-13.1 73.39-12.7 73.14-11.95ZM91.44-25.3L91.44-25.3Q91.04-25.1 90.54-24.55L90.54-24.55Q81.34-7.4 81.34-2.5L81.34-2.5Q81.34-0.85 82.44-0.85L82.44-0.85Q83.84-0.85 86.34-3.05L86.34-3.05Q86.74-3.4 86.91-3.55 87.09-3.7 87.04-3.7L87.04-3.7Q87.24-3.7 87.24-3.55 87.24-3.4 87.04-3.1L87.04-3.1Q84.84 0 82.54 0L82.54 0Q80.04 0 80.04-2.65 80.04-5.3 82.59-12.2L82.59-12.2Q81.34-10.5 80.84-10.5L80.84-10.5Q80.69-10.5 80.69-10.6 80.69-10.7 82.01-12.43 83.34-14.15 83.44-14.35L83.44-14.35Q84.99-18.85 88.09-25.15 91.19-31.45 92.34-33.55L92.34-33.55Q92.74-34.4 94.01-34.4 95.29-34.4 95.29-34.05 95.29-33.7 91.44-25.3ZM99.59-25.3L99.59-25.3Q99.19-25.1 98.69-24.55L98.69-24.55Q89.49-7.4 89.49-2.5L89.49-2.5Q89.49-0.85 90.59-0.85L90.59-0.85Q91.99-0.85 94.49-3.05L94.49-3.05Q94.89-3.4 95.06-3.55 95.24-3.7 95.19-3.7L95.19-3.7Q95.39-3.7 95.39-3.55 95.39-3.4 95.19-3.1L95.19-3.1Q92.99 0 90.69 0L90.69 0Q88.19 0 88.19-2.65 88.19-5.3 90.74-12.2L90.74-12.2Q89.49-10.5 88.99-10.5L88.99-10.5Q88.84-10.5 88.84-10.6 88.84-10.7 90.16-12.43 91.49-14.15 91.59-14.35L91.59-14.35Q93.14-18.85 96.24-25.15 99.34-31.45 100.49-33.55L100.49-33.55Q100.89-34.4 102.16-34.4 103.44-34.4 103.44-34.05 103.44-33.7 99.59-25.3ZM111.18-6.3Q111.48-6.7 111.63-6.7 111.78-6.7 111.78-6.48 111.78-6.25 111.58-6L111.58-6Q107.08 0.7 104.63 0.7L104.63 0.7Q103.28 0.7 102.61-0.58 101.93-1.85 101.93-3.43 101.93-5 102.43-7.05L102.43-7.05Q99.28-0.05 95.93-0.05L95.93-0.05Q93.88-0.05 93.88-2.7L93.88-2.7Q93.88-6.95 98.01-11.55 102.13-16.15 106.23-16.15L106.23-16.15Q108.18-16.15 108.18-14.45L108.18-14.45Q108.18-12.35 105.38-10.25L105.38-10.25Q103.93-6.65 103.93-3.33 103.93 0 105.18 0L105.18 0Q106.83 0 111.18-6.3L111.18-6.3ZM105.88-11.95L105.88-11.95Q106.68-13.05 106.68-14.15 106.68-15.25 105.63-15.25L105.63-15.25Q103.13-15.25 99.08-10.33 95.03-5.4 95.03-2.75L95.03-2.75Q95.03-1.6 96.13-1.6L96.13-1.6Q99.28-1.6 102.23-8.6L102.23-8.6Q101.33-8.35 101.03-8.35 100.73-8.35 100.73-8.5L100.73-8.5Q100.73-8.75 101.43-9L101.43-9 102.98-9.9Q103.08-10.75 104.03-12.13 104.98-13.5 105.83-13.5L105.83-13.5Q106.13-13.5 106.13-13.1 106.13-12.7 105.88-11.95ZM110.58 0.4L110.58 0.3 113.38-12.35Q113.18-13.05 112.28-15.05L112.28-15.05Q112.28-15.4 113.13-15.7L113.13-15.7Q115.63-16.65 116.36-16.65 117.08-16.65 117.08-16.2L117.08-16.2Q115.23-11.6 114.53-9.8L114.53-9.8Q114.53-9.65 114.53-9.5L114.53-9.5Q114.53-7.95 114.08-7.95L114.08-7.95Q113.98-7.95 113.93-8.1L113.93-8.1Q112.88-4.95 112.48-3.5L112.48-3.5Q114.78-7.25 117.18-10.05L117.18-10.05Q120.93-14.4 123.38-14.4L123.38-14.4Q124.53-14.4 124.53-13.5L124.53-13.5Q124.53-13.15 121.63-2.5L121.63-2.5Q124.53-4.65 126.13-7.1L126.13-7.1Q126.38-7.4 126.51-7.4 126.63-7.4 126.63-7.25 126.63-7.1 126.48-6.85L126.48-6.85Q124.28-2.95 121.13-0.65L121.13-0.65Q120.88-0.35 120.51-0.35 120.13-0.35 120.13-0.8 120.13-1.25 120.73-4.2 121.33-7.15 121.61-8.7 121.88-10.25 121.98-12.6L121.98-12.6Q119.93-11.6 116.93-8.3 113.93-5 112.96-3.15 111.98-1.3 111.71-0.13 111.43 1.05 111.01 1.05 110.58 1.05 110.58 0.4L110.58 0.4ZM113.68-13.7L114.13-15.35Q113.88-15.15 113.18-14.85L113.18-14.85 113.68-13.7Z" opacity="1" transform="matrix(1,0,0,1,0,0)" fill="#ffffff" class="wordmark-text-0" data-fill-palette-color="quaternary" id="text-0"></path></svg></g></svg></g></svg></g></svg></g><g transform="matrix(1,0,0,1,40.713262274387006,0)"><svg viewBox="0 0 131.7319166783831 79.55323151791083" height="79.55323151791083" width="131.7319166783831"><g><svg xmlns="http://www.w3.org/2000/svg" xmlns:xlink="http://www.w3.org/1999/xlink" version="1.1" x="0" y="0" viewBox="5.5 24.394000000000005 89.58399999999999 54.09999999999998" enable-background="new 0 0 100 100" xml:space="preserve" height="79.55323151791083" width="131.7319166783831" class="icon-icon-0" data-fill-palette-color="quaternary" id="icon-0"><path fill="#ffffff" d="M93.132 67.236h-3.088V52.277c0-0.332-0.086-0.659-0.246-0.949l-8.78-15.77c-0.345-0.618-0.996-1.002-1.705-1.002H62.567v-2.358h7.316c1.078 0 1.951-0.874 1.951-1.951v-3.902c0-1.077-0.873-1.951-1.951-1.951s-1.951 0.874-1.951 1.951v1.951H26.434l0.04-1.828c0.023-1.077-0.833-1.969-1.909-1.993-0.015 0-0.029 0-0.042 0-1.059 0-1.928 0.846-1.951 1.909l-0.082 3.821c-0.011 0.525 0.191 1.032 0.556 1.407 0.368 0.374 0.871 0.586 1.395 0.586h7.234v2.358h-8.618c-7.082 0-12.844 5.762-12.844 12.844v19.836H7.451c-1.078 0-1.951 0.874-1.951 1.951s0.873 1.951 1.951 1.951h11.878c0.9 4.197 4.633 7.356 9.096 7.356s8.194-3.159 9.094-7.356h27.659c0.9 4.197 4.633 7.356 9.096 7.356 4.463 0 8.194-3.159 9.094-7.356h9.765c1.078 0 1.951-0.874 1.951-1.951S94.21 67.236 93.132 67.236zM74.273 59.878c-4.463 0-8.195 3.16-9.096 7.357h-2.61V52.765h23.563l0.011 0.019v2.095h-1.137c-1.078 0-1.951 0.874-1.951 1.951s0.873 1.951 1.951 1.951h1.137v8.455h-2.774C82.468 63.038 78.736 59.878 74.273 59.878zM78.166 38.458l5.793 10.405H62.567V38.458H78.166zM58.665 48.863H35.577V38.458h23.088V48.863zM35.577 32.198h23.088v2.358H35.577V32.198zM23.058 38.458h8.618v10.405H14.116V47.4C14.116 42.47 18.127 38.458 23.058 38.458zM19.329 67.236h-5.213v-8.455h1.951c1.078 0 1.951-0.874 1.951-1.951s-0.873-1.951-1.951-1.951h-1.951v-2.114h44.549v14.471H37.519c-0.9-4.198-4.631-7.357-9.094-7.357S20.229 63.038 19.329 67.236zM28.425 74.592c-2.982 0-5.407-2.424-5.407-5.405 0-2.981 2.425-5.406 5.407-5.406 2.98 0 5.405 2.425 5.405 5.406C33.83 72.167 31.405 74.592 28.425 74.592zM74.273 74.592c-2.98 0-5.403-2.421-5.407-5.399 0-0.002 0.001-0.004 0.001-0.006 0-0.002-0.001-0.004-0.001-0.006 0.004-2.978 2.427-5.4 5.407-5.4 2.98 0 5.405 2.425 5.405 5.406C79.679 72.167 77.253 74.592 74.273 74.592z" data-fill-palette-color="quaternary"></path></svg></g></svg></g><g></g></svg></g></svg></g></svg></g></svg></g><defs></defs></svg><rect width="342.85155851775386" height="342.85155851775386" fill="none" stroke="none" visibility="hidden"></rect></g></svg></g></svg>